<?xml version="1.0" standalone="no"?>
<!DOCTYPE svg PUBLIC "-//W3C//DTD SVG 20010904//EN"
 "http://www.w3.org/TR/2001/REC-SVG-20010904/DTD/svg10.dtd">
<svg version="1.0" xmlns="http://www.w3.org/2000/svg"
 width="674.000000pt" height="1293.000000pt" viewBox="0 0 674.000000 1293.000000"
 preserveAspectRatio="xMidYMid meet">
<metadata>
Created by potrace 1.13, written by Peter Selinger 2001-2015
</metadata>
<g transform="translate(0.000000,1293.000000) scale(0.100000,-0.100000)"
fill="#000000" stroke="none">
<path d="M7 12923 c-4 -3 -7 -2910 -7 -6460 l0 -6453 3370 0 3370 0 -2 6458
-3 6457 -3361 3 c-1848 1 -3364 -1 -3367 -5z m5535 -768 c50 -35 98 -120 98
-174 0 -104 -72 -197 -169 -221 -165 -39 -314 121 -259 281 17 52 67 109 112
130 64 29 163 22 218 -16z m-3227 -330 c338 -59 545 -233 611 -511 19 -82 22
-270 4 -347 -32 -139 -143 -299 -282 -404 -66 -50 -188 -117 -257 -141 -24 -9
-31 -15 -24 -24 29 -39 232 -313 375 -508 91 -124 218 -295 282 -380 63 -85
116 -158 116 -162 0 -10 -242 -10 -256 0 -6 4 -67 81 -136 172 -68 91 -180
239 -249 329 -68 91 -196 259 -283 375 -87 116 -170 225 -182 242 l-24 30 93
27 c347 98 545 266 587 501 17 89 7 196 -26 294 -41 122 -108 199 -227 257
-124 60 -178 70 -392 70 -104 0 -202 -4 -217 -8 l-28 -7 -2 -1143 -3 -1142
-90 -3 c-49 -2 -100 0 -112 3 l-23 5 0 1234 0 1233 148 12 c81 7 154 14 162
16 36 9 353 -5 435 -20z m2320 0 c388 -80 648 -378 745 -850 25 -122 42 -374
35 -510 -34 -618 -305 -1024 -755 -1130 -96 -22 -312 -31 -419 -16 -377 50
-631 274 -768 674 -58 173 -75 291 -79 557 -3 251 4 326 50 510 113 451 392
721 809 780 87 12 287 4 382 -15z m-1785 -4230 l0 -105 -330 0 -330 0 0 -1125
0 -1125 -22 -5 c-13 -3 -66 -5 -118 -3 l-95 3 -3 1128 -2 1127 -330 0 -330 0
0 105 0 105 780 0 780 0 0 -105z m620 -690 c0 -481 4 -834 10 -893 37 -346
167 -524 420 -578 114 -24 321 -15 417 19 209 74 304 212 348 504 12 80 15
247 15 921 l0 823 118 -3 c110 -3 117 -4 115 -23 -1 -11 -3 -396 -3 -855 -1
-779 -2 -843 -20 -948 -53 -308 -199 -518 -423 -609 -150 -61 -419 -86 -587
-54 -350 66 -525 245 -612 629 -21 95 -22 111 -25 980 l-4 882 116 0 115 0 0
-795z m817 -3301 c269 -55 480 -214 616 -464 211 -387 229 -1050 41 -1484
-126 -292 -352 -484 -643 -546 -294 -62 -589 -12 -805 137 -113 78 -224 210
-294 350 -182 360 -211 930 -70 1347 133 395 412 633 793 677 94 10 266 2 362
-17z m-2487 -1139 l0 -1125 528 -2 527 -3 3 -103 3 -102 -646 0 -645 0 0 1230
0 1230 115 0 115 0 0 -1125z m3681 -955 c52 -15 124 -82 145 -135 38 -100 -7
-216 -105 -267 -227 -119 -435 171 -251 349 55 54 136 74 211 53z"/>
<path d="M4290 11630 c-442 -56 -676 -453 -657 -1113 9 -336 72 -556 213 -744
79 -106 210 -193 344 -230 93 -26 341 -25 425 0 283 87 459 313 530 682 27
145 38 343 26 491 -21 247 -55 385 -134 539 -94 184 -254 315 -437 359 -82 19
-225 27 -310 16z"/>
<path d="M4010 3417 c-3 -2 -33 -8 -68 -11 -273 -28 -488 -224 -585 -532 -54
-169 -62 -238 -62 -519 1 -242 2 -268 27 -380 47 -222 115 -360 238 -485 132
-134 278 -190 500 -190 184 0 297 34 426 125 155 111 275 335 320 598 24 145
29 437 10 587 -39 292 -110 460 -259 611 -116 118 -259 179 -457 194 -47 4
-87 5 -90 2z"/>
</g>
</svg>
