<svg id="Camada_1" data-name="Camada 1" xmlns="http://www.w3.org/2000/svg" viewBox="0 0 3495.61 4043.38"><defs><style>.cls-1{fill:none;stroke:#1d1d1b;stroke-miterlimit:10;stroke-width:28.35px;}.cls-2{fill:#1d1d1b;}</style></defs><title>logo_Rotulo</title><path class="cls-1" d="M3495.92,4018H1513.08V538.62H3495.92V4018Z" transform="translate(-756.7 -256.63)"/><path class="cls-2" d="M2143.07,1187.35l27.72-2.52q11.88-1.08,23-2.16t23.4-1.44q12.23-.35,28.8-0.36a323.23,323.23,0,0,1,68,7.2,174.22,174.22,0,0,1,60.12,24.84q26.63,17.65,42.84,47.52t16.2,75.24q0,28.08-10.08,51.12a157.67,157.67,0,0,1-26.28,41.4,170.26,170.26,0,0,1-37.44,31.68,255.43,255.43,0,0,1-43.56,22l-5.76,2.16L2475,1707.19a73.65,73.65,0,0,1-14.4,1.44h-28.44a71.7,71.7,0,0,1-14-1.44l-181.44-239.76v-2.88l15.84-4.32a302.64,302.64,0,0,0,47.52-16.92,176.27,176.27,0,0,0,40.68-25.2,117.39,117.39,0,0,0,28.44-34.92q10.8-20.15,10.8-47.52,0-56.16-34.56-84.24t-93.6-28.08q-15.12,0-28.08.72t-31,2.88v480.24q-5,.71-12.24,1.08t-13,.36q-6.48,0-13-.36c-4.32-.25-8.17-0.61-11.52-1.08V1187.35Z" transform="translate(-756.7 -256.63)"/><path class="cls-2" d="M2738.51,1715.83q-54,0-94.32-19.8a180,180,0,0,1-66.6-55.44q-26.29-35.64-39.6-85T2524.67,1448q0-58.32,13.32-107.28t39.6-84.6a180.09,180.09,0,0,1,66.6-55.44q40.31-19.79,94.32-19.8t94.32,19.8a180.27,180.27,0,0,1,66.6,55.44q26.27,35.64,39.6,84.6T2952.35,1448q0,58.32-13.32,107.64t-39.6,85a180.17,180.17,0,0,1-66.6,55.44Q2792.5,1715.83,2738.51,1715.83Zm0-45.36q41.75,0,72-16.2a141.18,141.18,0,0,0,50.4-45.72q20.15-29.52,29.88-70.56t9.72-90q0-49-9.72-90t-29.88-70.2a142.45,142.45,0,0,0-50.4-45.36q-30.24-16.2-72-16.2t-72.36,16.2a138.38,138.38,0,0,0-50.4,45.36q-19.81,29.16-29.52,70.2t-9.72,90q0,49,9.72,90t29.52,70.56a137.2,137.2,0,0,0,50.4,45.72Q2696.74,1670.47,2738.51,1670.47Z" transform="translate(-756.7 -256.63)"/><path class="cls-2" d="M2223.71,2098.15h-139a98.62,98.62,0,0,1-1.08-10.44c-0.25-4.07-.36-8-0.36-11.88,0-3.35.11-7.2,0.36-11.52a99.92,99.92,0,0,1,1.08-10.8h327.6q0.71,4.32,1.08,10.08t0.36,11.52q0,5-.36,11.88a107.17,107.17,0,0,1-1.08,11.16h-139v473q-5,.71-11.52,1.08t-13,.36q-7.21,0-14-.36a107.26,107.26,0,0,1-11.16-1.08v-473Z" transform="translate(-756.7 -256.63)"/><path class="cls-2" d="M2493.7,2053.51q5-.71,12.24-1.08t13-.36q6.48,0,13,.36t11.52,1.08V2366q0,45.36,7.56,76.68t23,51.48a87.66,87.66,0,0,0,39.24,29.16q23.76,9,56.88,9,65.51,0,96.12-38.16t30.6-128.16V2053.51c3.35-.47,7.2-0.83,11.52-1.08s8.64-.36,13-0.36q5.75,0,13,.36t12.24,1.08v319q0,103.68-42.48,155.52t-133.92,51.84q-91.45,0-133.92-51.84t-42.48-155.52v-319Z" transform="translate(-756.7 -256.63)"/><path class="cls-2" d="M2143.07,2917.51a107,107,0,0,1,11.16-1.08q6.83-.35,14-0.36,6.48,0,13,.36t11.52,1.08v472.32h221a107.5,107.5,0,0,1,1.08,11.16q0.35,6.85.36,11.88,0,5.77-.36,11.88a104.94,104.94,0,0,1-1.08,10.44H2143.07V2917.51Z" transform="translate(-756.7 -256.63)"/><path class="cls-2" d="M2666.5,3443.83q-54,0-94.32-19.8a180,180,0,0,1-66.6-55.44q-26.29-35.64-39.6-85T2452.66,3176q0-58.32,13.32-107.28t39.6-84.6a180.09,180.09,0,0,1,66.6-55.44q40.31-19.79,94.32-19.8t94.32,19.8a180.27,180.27,0,0,1,66.6,55.44q26.27,35.64,39.6,84.6T2880.34,3176q0,58.32-13.32,107.64t-39.6,85a180.17,180.17,0,0,1-66.6,55.44Q2720.49,3443.83,2666.5,3443.83Zm0-45.36q41.75,0,72-16.2a141.18,141.18,0,0,0,50.4-45.72q20.15-29.52,29.88-70.56t9.72-90q0-49-9.72-90t-29.88-70.2a142.45,142.45,0,0,0-50.4-45.36q-30.24-16.2-72-16.2t-72.36,16.2a138.38,138.38,0,0,0-50.4,45.36q-19.81,29.16-29.52,70.2t-9.72,90q0,49,9.72,90t29.52,70.56a137.2,137.2,0,0,0,50.4,45.72Q2624.74,3398.47,2666.5,3398.47Z" transform="translate(-756.7 -256.63)"/><circle class="cls-2" cx="2195.65" cy="826.62" r="68.82"/><circle class="cls-2" cx="3082.92" cy="3073.02" r="68.82"/><path class="cls-1" d="M4232.95,3289.23L2515.76,4280.65,776.06,1267.41,2493.25,276Z" transform="translate(-756.7 -256.63)"/><path class="cls-1" d="M3943.6,3683.4L1960.75,4214.7,1060.22,853.86l1982.84-531.3Z" transform="translate(-756.7 -256.63)"/><circle class="cls-2" cx="756.38" cy="3236.4" r="68.82"/></svg>